<svg width="28" height="35" viewBox="0 0 28 35" fill="none" xmlns="http://www.w3.org/2000/svg">
<path d="M8.57059 25.8462H4.89275C4.57016 25.8462 4.30859 26.1078 4.30859 26.4303V30.1082C4.30859 30.4308 4.57016 30.6923 4.89275 30.6923H8.57059C8.89318 30.6923 9.15475 30.4308 9.15475 30.1082V26.4303C9.15475 26.1078 8.89318 25.8462 8.57059 25.8462ZM7.98644 29.524H5.4769V27.0145H7.98644V29.524Z" fill="#FB5741"/>
<path d="M9.15475 12.4303C9.15475 12.1078 8.89318 11.8462 8.57059 11.8462H4.89275C4.57016 11.8462 4.30859 12.1078 4.30859 12.4303V16.1082C4.30859 16.4308 4.57016 16.6923 4.89275 16.6923H8.57059C8.89318 16.6923 9.15475 16.4308 9.15475 16.1082V12.4303ZM7.98644 15.5243H5.4769V13.0148H7.98644V15.5243Z" fill="#FB5741"/>
<path d="M9.15475 19.4303C9.15475 19.1078 8.89318 18.8462 8.57059 18.8462H4.89275C4.57016 18.8462 4.30859 19.1078 4.30859 19.4303V23.1082C4.30859 23.4308 4.57016 23.6923 4.89275 23.6923H8.57059C8.89318 23.6923 9.15475 23.4308 9.15475 23.1082V19.4303ZM7.98644 22.524H5.4769V20.0145H7.98644V22.524Z" fill="#FB5741"/>
<path d="M18.8465 13.9999C18.8465 13.7025 18.5792 13.4614 18.2496 13.4614H11.3664C11.0368 13.4614 10.7695 13.7025 10.7695 13.9999C10.7695 14.2972 11.0368 14.5383 11.3664 14.5383H18.2496C18.5792 14.5383 18.8465 14.2972 18.8465 13.9999Z" fill="#FB5741"/>
<path d="M11.3944 20.4614C11.0493 20.4614 10.7695 20.8231 10.7695 21.2691C10.7695 21.7151 11.0493 22.0768 11.3944 22.0768H16.8956C17.1394 21.4948 17.4337 20.954 17.7695 20.4614H11.3944Z" fill="#FB5741"/>
<path d="M10.7695 28.5385C10.7695 28.8358 11.0483 29.0769 11.3922 29.0769H17.7695C17.4315 28.7488 17.1352 28.3882 16.8895 28H11.3922C11.0481 28 10.7695 28.2411 10.7695 28.5385Z" fill="#FB5741"/>
<path d="M21.5045 31.0934V33.3576L1.64858 33.3579V7.35617H5.11008V8.71486C5.11008 9.16802 5.47915 9.53537 5.93444 9.53537H17.2191C17.6744 9.53537 18.0434 9.16802 18.0434 8.71486V7.35617H21.5051V18.6109C21.7754 18.5758 22.0498 18.5554 22.3295 18.5554C22.6092 18.5554 22.8836 18.5755 23.1538 18.6106L23.1536 6.53607C23.1536 6.08291 22.7845 5.71556 22.3292 5.71556H18.0432V4.35686C18.0432 3.9037 17.6741 3.53636 17.2188 3.53636H14.3196V2.72998C14.3196 1.22473 13.0891 0 11.5768 0C10.0645 0 8.83403 1.22473 8.83403 2.72998V3.53636H5.93431C5.47902 3.53636 5.10995 3.9037 5.10995 4.35686V5.71556H0.824359C0.369071 5.71556 0 6.08291 0 6.53607V34.1795C0 34.6327 0.369071 35 0.824359 35H22.329C22.7843 35 23.1534 34.6327 23.1534 34.1795V31.0944C22.8832 31.1295 22.6087 31.1497 22.329 31.1497C22.0493 31.1497 21.7749 31.1295 21.5047 31.0942L21.5045 31.0934ZM10.4823 2.72857C10.4823 2.12811 10.9731 1.63961 11.5764 1.63961C12.1797 1.63961 12.6705 2.1281 12.6705 2.72857V3.53495H10.4823V2.72857ZM6.75826 5.17623H16.3942V7.89389H6.75826V5.17623Z" fill="#FB5741"/>
<path d="M22.076 19.3848C19.107 19.3848 16.6914 21.8001 16.6914 24.7694C16.6914 27.7386 19.107 30.154 22.076 30.154C25.045 30.154 27.4606 27.7386 27.4606 24.7694C27.4604 21.8004 25.045 19.3848 22.076 19.3848ZM22.076 28.5402C19.9966 28.5402 18.3049 26.8483 18.3049 24.7691C18.3049 22.6897 19.9966 20.998 22.076 20.998C24.1557 20.998 25.8471 22.6897 25.8471 24.7691C25.8469 26.8485 24.1554 28.5402 22.076 28.5402Z" fill="#FB5741"/>
<path d="M23.7129 23.3296L21.8719 25.1201L20.9106 24.4419C20.6489 24.2571 20.2671 24.2948 20.0574 24.5238C19.8477 24.7536 19.8894 25.0892 20.1506 25.2737L21.5584 26.2669C21.6703 26.346 21.8047 26.3846 21.938 26.3846C22.1041 26.3846 22.2691 26.325 22.3883 26.2088L24.6133 24.045C24.8382 23.8264 24.8186 23.4894 24.5699 23.2918C24.3215 23.0939 23.9376 23.1108 23.713 23.3297L23.7129 23.3296Z" fill="#FB5741"/>
</svg>
