<svg width="48" height="49" viewBox="0 0 48 49" fill="none" xmlns="http://www.w3.org/2000/svg">
<path d="M24 14.7222C18.5 14.7222 14 19.2122 14 24.7422C14 29.7422 17.66 33.8922 22.44 34.6422V27.6422H19.9V24.7422H22.44V22.5322C22.44 20.0222 23.93 18.6422 26.22 18.6422C27.31 18.6422 28.45 18.8322 28.45 18.8322V21.3022H27.19C25.95 21.3022 25.56 22.0722 25.56 22.8622V24.7422H28.34L27.89 27.6422H25.56V34.6422C27.9164 34.27 30.0622 33.0677 31.6099 31.2522C33.1576 29.4368 34.0054 27.1278 34 24.7422C34 19.2122 29.5 14.7222 24 14.7222Z" fill="#BABABA"/>
<rect x="0.5" y="1.18213" width="47" height="47" rx="23.5" stroke="#FFEEDA"/>
</svg>
