<svg width="48" height="49" viewBox="0 0 48 49" fill="none" xmlns="http://www.w3.org/2000/svg">
<path d="M19.8 14.6821H28.2C31.4 14.6821 34 17.2821 34 20.4821V28.8821C34 30.4204 33.3889 31.8956 32.3012 32.9833C31.2135 34.0711 29.7383 34.6821 28.2 34.6821H19.8C16.6 34.6821 14 32.0821 14 28.8821V20.4821C14 18.9439 14.6111 17.4686 15.6988 16.3809C16.7865 15.2932 18.2617 14.6821 19.8 14.6821ZM19.6 16.6821C18.6452 16.6821 17.7295 17.0614 17.0544 17.7365C16.3793 18.4117 16 19.3273 16 20.2821V29.0821C16 31.0721 17.61 32.6821 19.6 32.6821H28.4C29.3548 32.6821 30.2705 32.3028 30.9456 31.6277C31.6207 30.9526 32 30.0369 32 29.0821V20.2821C32 18.2921 30.39 16.6821 28.4 16.6821H19.6ZM29.25 18.1821C29.5815 18.1821 29.8995 18.3138 30.1339 18.5482C30.3683 18.7827 30.5 19.1006 30.5 19.4321C30.5 19.7636 30.3683 20.0816 30.1339 20.316C29.8995 20.5504 29.5815 20.6821 29.25 20.6821C28.9185 20.6821 28.6005 20.5504 28.3661 20.316C28.1317 20.0816 28 19.7636 28 19.4321C28 19.1006 28.1317 18.7827 28.3661 18.5482C28.6005 18.3138 28.9185 18.1821 29.25 18.1821ZM24 19.6821C25.3261 19.6821 26.5979 20.2089 27.5355 21.1466C28.4732 22.0843 29 23.356 29 24.6821C29 26.0082 28.4732 27.28 27.5355 28.2177C26.5979 29.1553 25.3261 29.6821 24 29.6821C22.6739 29.6821 21.4021 29.1553 20.4645 28.2177C19.5268 27.28 19 26.0082 19 24.6821C19 23.356 19.5268 22.0843 20.4645 21.1466C21.4021 20.2089 22.6739 19.6821 24 19.6821ZM24 21.6821C23.2044 21.6821 22.4413 21.9982 21.8787 22.5608C21.3161 23.1234 21 23.8865 21 24.6821C21 25.4778 21.3161 26.2408 21.8787 26.8034C22.4413 27.3661 23.2044 27.6821 24 27.6821C24.7956 27.6821 25.5587 27.3661 26.1213 26.8034C26.6839 26.2408 27 25.4778 27 24.6821C27 23.8865 26.6839 23.1234 26.1213 22.5608C25.5587 21.9982 24.7956 21.6821 24 21.6821Z" fill="#BABABA"/>
<rect x="0.5" y="1.18213" width="47" height="47" rx="23.5" stroke="#FFEEDA"/>
</svg>
