<svg width="48" height="49" viewBox="0 0 48 49" fill="none" xmlns="http://www.w3.org/2000/svg">
<path d="M31 15.6821C31.5304 15.6821 32.0391 15.8928 32.4142 16.2679C32.7893 16.643 33 17.1517 33 17.6821V31.6821C33 32.2126 32.7893 32.7213 32.4142 33.0963C32.0391 33.4714 31.5304 33.6821 31 33.6821H17C16.4696 33.6821 15.9609 33.4714 15.5858 33.0963C15.2107 32.7213 15 32.2126 15 31.6821V17.6821C15 17.1517 15.2107 16.643 15.5858 16.2679C15.9609 15.8928 16.4696 15.6821 17 15.6821H31ZM30.5 31.1821V25.8821C30.5 25.0175 30.1565 24.1883 29.5452 23.577C28.9338 22.9656 28.1046 22.6221 27.24 22.6221C26.39 22.6221 25.4 23.1421 24.92 23.9221V22.8121H22.13V31.1821H24.92V26.2521C24.92 25.4821 25.54 24.8521 26.31 24.8521C26.6813 24.8521 27.0374 24.9996 27.2999 25.2622C27.5625 25.5247 27.71 25.8808 27.71 26.2521V31.1821H30.5ZM18.88 21.2421C19.3256 21.2421 19.7529 21.0651 20.0679 20.7501C20.383 20.435 20.56 20.0077 20.56 19.5621C20.56 18.6321 19.81 17.8721 18.88 17.8721C18.4318 17.8721 18.0019 18.0502 17.685 18.3671C17.3681 18.6841 17.19 19.1139 17.19 19.5621C17.19 20.4921 17.95 21.2421 18.88 21.2421ZM20.27 31.1821V22.8121H17.5V31.1821H20.27Z" fill="#BABABA"/>
<rect x="0.5" y="1.18213" width="47" height="47" rx="23.5" stroke="#FFEEDA"/>
</svg>
