<svg width="48" height="49" viewBox="0 0 48 49" fill="none" xmlns="http://www.w3.org/2000/svg">
<path d="M34.4591 18.6821C33.6891 19.0321 32.8591 19.2621 31.9991 19.3721C32.8791 18.8421 33.5591 18.0021 33.8791 16.9921C33.0491 17.4921 32.1291 17.8421 31.1591 18.0421C30.3691 17.1821 29.2591 16.6821 27.9991 16.6821C25.6491 16.6821 23.7291 18.6021 23.7291 20.9721C23.7291 21.3121 23.7691 21.6421 23.8391 21.9521C20.2791 21.7721 17.1091 20.0621 14.9991 17.4721C14.6291 18.1021 14.4191 18.8421 14.4191 19.6221C14.4191 21.1121 15.1691 22.4321 16.3291 23.1821C15.6191 23.1821 14.9591 22.9821 14.3791 22.6821V22.7121C14.3791 24.7921 15.8591 26.5321 17.8191 26.9221C17.1898 27.0943 16.5292 27.1183 15.8891 26.9921C16.1607 27.8446 16.6926 28.5905 17.4101 29.1251C18.1276 29.6596 18.9945 29.9558 19.8891 29.9721C18.3727 31.1726 16.4931 31.8214 14.5591 31.8121C14.2191 31.8121 13.8791 31.7921 13.5391 31.7521C15.4391 32.9721 17.6991 33.6821 20.1191 33.6821C27.9991 33.6821 32.3291 27.1421 32.3291 21.4721C32.3291 21.2821 32.3291 21.1021 32.3191 20.9121C33.1591 20.3121 33.8791 19.5521 34.4591 18.6821Z" fill="#BABABA"/>
<rect x="0.5" y="1.18213" width="47" height="47" rx="23.5" stroke="#FFEEDA"/>
</svg>
