<svg width="47" height="49" viewBox="0 0 47 49" fill="none" xmlns="http://www.w3.org/2000/svg">
<path d="M32.3866 20.5182C32.1728 19.7766 31.5467 19.192 30.7527 18.9923C29.302 18.6216 23.4994 18.6216 23.4994 18.6216C23.4994 18.6216 17.6968 18.6216 16.2461 18.9781C15.4673 19.1777 14.826 19.7766 14.6122 20.5182C14.2305 21.8729 14.2305 24.6821 14.2305 24.6821C14.2305 24.6821 14.2305 27.5055 14.6122 28.846C14.826 29.5875 15.4521 30.1721 16.2461 30.3718C17.712 30.7425 23.4994 30.7425 23.4994 30.7425C23.4994 30.7425 29.302 30.7425 30.7527 30.386C31.5467 30.1864 32.1728 29.6017 32.3866 28.8602C32.7683 27.5055 32.7683 24.6963 32.7683 24.6963C32.7683 24.6963 32.7836 21.8729 32.3866 20.5182Z" fill="#BABABA"/>
<path d="M26.4777 24.6832L21.6523 22.0879V27.2785L26.4777 24.6832Z" fill="#2C3E47"/>
<rect x="0.52069" y="1.20282" width="45.9586" height="46.9586" rx="22.9793" stroke="#FFEEDA" stroke-width="1.04138"/>
</svg>
